{"title":"äººç´„ç µè˜­è¡—/Ren yue bo lan jie/Date in Portland Street(1995)","uid":11154929,"size":198244784,"categoryP":"other","categoryS":"other","magnet":"?xt=urn:btih:1fc517070f9400597eeba0354edb1ed4302270fa&amp;dn=%E4%BA%BA%E7%B4%84%E7%A0%B5%E8%98%AD%E8%A1%97%2FRen+yue+bo+lan+jie%2FDate+in+Portland+Street%281995%29&amp;tr=udp%3A%2F%2Ftracker.openbittorrent.com%3A80&amp;tr=udp%3A%2F%2Fopen.demonii.com%3A1337&amp;tr=udp%3A%2F%2Ftracker.coppersurfer.tk%3A6969&amp;tr=udp%3A%2F%2Fexodus.desync.com%3A6969","seeders":0,"leechers":0,"uploader":"app1985","files":-1,"time":1412389735,"description":"VCDRip , CnEn subbed\n\n\n \n\nChi title : äººç´„ç µè˜­è¡—\n\n\nEng title : Ren yue bo lan jie / A Date in Portland Street /Cheating /\n\n            Date in Portland Street / Street of Casual Love\n\n\n\n &lt;a href=&quot;\nhttp://www.imdb.com/title/tt0114265/&quot; rel=&quot;nofollow&quot; target=&quot;_NEW&quot;&gt;\nhttp://www.imdb.com/title/tt0114265/&lt;/a&gt;\n\n &lt;a href=&quot;\nhttp://hkmdb.com/db/movies/view.mhtml?id=8114&amp;complete_credits=1&amp;display_set=big5&quot; rel=&quot;nofollow&quot; target=&quot;_NEW&quot;&gt;\nhttp://hkmdb.com/db/movies/view.mhtml?id=8114&amp;complete_credits=1&amp;display_set=big5&lt;/a&gt;\n\n &lt;a href=&quot;\nhttp://movie.douban.com/subject/3395695/&quot; rel=&quot;nofollow&quot; target=&quot;_NEW&quot;&gt;\nhttp://movie.douban.com/subject/3395695/&lt;/a&gt;\n\n\n\n\n\nscreens:\n &lt;a href=&quot;\nhttp://bayimg.com/FaAhnaAGN&quot; rel=&quot;nofollow&quot; target=&quot;_NEW&quot;&gt;\nhttp://bayimg.com/FaAhnaAGN&lt;/a&gt;\n &lt;a href=&quot;\nhttp://bayimg.com/faahOAAgN&quot; rel=&quot;nofollow&quot; target=&quot;_NEW&quot;&gt;\nhttp://bayimg.com/faahOAAgN&lt;/a&gt;\n &lt;a href=&quot;\nhttp://bayimg.com/gAaHaAaGn&quot; rel=&quot;nofollow&quot; target=&quot;_NEW&quot;&gt;\nhttp://bayimg.com/gAaHaAaGn&lt;/a&gt;\n\n\n\n\n\nGeneral\nComplete name                  : äººç´„ç µè˜­è¡—.1995.CD2.flv\nFormat                         : Flash Video\nFile size                      : 95.3 MiB\nDuration                       : 50mn 12s\nOverall bit rate               : 265 Kbps\nTagging application            : iku\n\nVideo\nFormat                         : AVC\nFormat/Info                    : Advanced Video Codec\nFormat profile                 : &lt;a class=&quot;__cf_email__&quot; href=&quot;/cdn-cgi/l/email-protection&quot; data-cfemail=&quot;a5edccc2cde5e9978b94&quot;&gt;[email&amp;#160;protected]&lt;/a&gt;&lt;script cf-hash='f9e31' type=&quot;text/javascript&quot;&gt;\n/* &lt;![CDATA[ */!function(){try{var t=&quot;currentScript&quot;in document?document.currentScript:function(){for(var t=document.getElementsByTagName(&quot;script&quot;),e=t.length;e--;)if(t[e].getAttribute(&quot;cf-hash&quot;))return t[e]}();if(t&amp;&amp;t.previousSibling){var e,r,n,i,c=t.previousSibling,a=c.getAttribute(&quot;data-cfemail&quot;);if(a){for(e=&quot;&quot;,r=parseInt(a.substr(0,2),16),n=2;a.length-n;n+=2)i=parseInt(a.substr(n,2),16)^r,e+=String.fromCharCode(i);e=document.createTextNode(e),c.parentNode.replaceChild(e,c)}}}catch(u){}}();/* ]]&gt; */&lt;/script&gt;\nFormat settings, CABAC         : Yes\nFormat settings, ReFrames      : 5 frames\nCodec ID                       : 7\nDuration                       : 50mn 12s\nBit rate                       : 223 Kbps\nWidth                          : 368 pixels\nHeight                         : 276 pixels\nDisplay aspect ratio           : 4:3\nFrame rate mode                : Constant\nFrame rate                     : 15.000 fps\nColor space                    : YUV\nChroma subsampling             : 4:2:0\nBit depth                      : 8 bits\nScan type                      : Progressive\nBits/(Pixel*Frame)             : 0.147\nStream size                    : 82.6 MiB (87%)\n\nAudio\nFormat                         : AAC\nFormat/Info                    : Advanced Audio Codec\nFormat profile                 : HE-AAC / LC\nCodec ID                       : 10\nDuration                       : 50mn 12s\nBit rate                       : 31.6 Kbps\nChannel(s)                     : 2 channels\nChannel positions              : Front: L R\nSampling rate                  : 44.1 KHz / 22.05 KHz\nCompression mode               : Lossy\nStream size                    : 12.3 MiB (13%)","torrent":{"xt":"urn:btih:1fc517070f9400597eeba0354edb1ed4302270fa","amp;dn":"%E4%BA%BA%E7%B4%84%E7%A0%B5%E8%98%AD%E8%A1%97%2FRen+yue+bo+lan+jie%2FDate+in+Portland+Street%281995%29","amp;tr":["udp%3A%2F%2Ftracker.openbittorrent.com%3A80","udp%3A%2F%2Fopen.demonii.com%3A1337","udp%3A%2F%2Ftracker.coppersurfer.tk%3A6969","udp%3A%2F%2Fexodus.desync.com%3A6969"],"infoHash":"1fc517070f9400597eeba0354edb1ed4302270fa","infoHashBuffer":{"type":"Buffer","data":[31,197,23,7,15,148,0,89,126,235,160,53,78,219,30,212,48,34,112,250]},"announce":[],"urlList":[]}}